<?xml version="1.0" encoding="UTF-8" standalone="no"?>
<!-- Created with Inkscape (http://www.inkscape.org/) -->

<svg
   width="1920"
   height="1080"
   viewBox="0 0 507.99999 285.75"
   version="1.1"
   id="svg1"
   inkscape:version="1.3.2 (091e20ef0f, 2023-11-25, custom)"
   xml:space="preserve"
   inkscape:export-filename="konami.png"
   inkscape:export-xdpi="96"
   inkscape:export-ydpi="96"
   sodipodi:docname="template.svg"
   xmlns:inkscape="http://www.inkscape.org/namespaces/inkscape"
   xmlns:sodipodi="http://sodipodi.sourceforge.net/DTD/sodipodi-0.dtd"
   xmlns="http://www.w3.org/2000/svg"
   xmlns:svg="http://www.w3.org/2000/svg"><sodipodi:namedview
     id="namedview1"
     pagecolor="#111111"
     bordercolor="#333333"
     borderopacity="1"
     inkscape:showpageshadow="0"
     inkscape:pageopacity="0"
     inkscape:pagecheckerboard="false"
     inkscape:deskcolor="#111111"
     inkscape:document-units="px"
     showguides="false"
     showborder="true"
     showgrid="false"
     inkscape:zoom="0.55769286"
     inkscape:cx="1034.6197"
     inkscape:cy="392.68927"
     inkscape:window-width="1920"
     inkscape:window-height="1047"
     inkscape:window-x="0"
     inkscape:window-y="0"
     inkscape:window-maximized="1"
     inkscape:current-layer="layer1"><inkscape:grid
       id="grid2"
       units="px"
       originx="0.26458332"
       originy="0.26458332"
       spacingx="0.26458333"
       spacingy="0.26458333"
       empcolor="#ffffff"
       empopacity="0.14901961"
       color="#ffffff"
       opacity="0.14901961"
       empspacing="5"
       dotted="false"
       gridanglex="30"
       gridanglez="30"
       visible="false" /><sodipodi:guide
       position="254,285.75"
       orientation="1,0"
       id="guide5"
       inkscape:locked="false" /><sodipodi:guide
       position="1.2758789e-05,142.875"
       orientation="0,-1"
       id="guide6"
       inkscape:locked="false" /></sodipodi:namedview><defs
     id="defs1" /><g
     inkscape:label="bg"
     inkscape:groupmode="layer"
     id="layer1"
     style="display:inline"
     sodipodi:insensitive="true"><rect
       style="fill:#23272e;fill-opacity:1;stroke-width:0.500294;paint-order:stroke fill markers"
       id="rect3"
       width="507.99997"
       height="285.75"
       x="1.2758789e-05"
       y="-2.8125e-06"
       inkscape:label="color" /></g><g
     inkscape:groupmode="layer"
     id="layer4"
     inkscape:label="logo"
     style="display:inline"><g
       id="g1"
       transform="translate(8.804936,2.6054695)"><path
         id="path1"
         style="display:inline;fill:#abb2bf;fill-opacity:1;stroke-width:0.299582"
         d="m 260.8108,134.04924 v 1.40819 h 3.87212 c 0.39425,0 0.67087,0.0689 0.83044,0.2067 0.16276,0.13781 0.24443,0.37686 0.24443,0.71779 v 0.24443 h -2.98535 c -0.79149,0 -1.40158,0.18468 -1.83038,0.55397 -0.42861,0.36609 -0.64285,0.87314 -0.64285,1.52083 0,0.65069 0.21404,1.16066 0.64285,1.53014 0.4286,0.36609 1.03869,0.54881 1.83038,0.54881 h 5.13509 v -4.02663 c 0,-0.95766 -0.24705,-1.64775 -0.74156,-2.07016 -0.49131,-0.42261 -1.29231,-0.63407 -2.40295,-0.63407 z m -50.6367,5.2e-4 c -0.74775,0 -1.32516,0.17524 -1.73219,0.52555 -0.40344,0.34751 -0.60513,0.84783 -0.60513,1.50172 0,0.65388 0.20512,1.15637 0.61494,1.50688 0.41302,0.34731 1.00922,0.5209 1.78853,0.5209 h 2.2195 c 0.49451,0 0.74207,0.21114 0.74207,0.63355 0,0.43199 -0.24756,0.64802 -0.74207,0.64802 h -4.43539 v 1.39372 h 4.98936 c 0.76034,0 1.33941,-0.17359 1.73685,-0.5209 0.40044,-0.35051 0.60048,-0.85737 0.60048,-1.52084 0,-0.65389 -0.20004,-1.15441 -0.60048,-1.50172 -0.39744,-0.3505 -0.97651,-0.52606 -1.73685,-0.52606 h -2.26704 c -0.50709,0 -0.76017,-0.21114 -0.76017,-0.63355 0,-0.41303 0.25308,-0.6196 0.76017,-0.6196 h 4.41678 v -1.40767 z m 5.88698,0 v 3.94239 c 0,0.97643 0.25981,1.68498 0.77928,2.12597 0.51927,0.44139 1.23601,0.66198 2.14974,0.66198 l 4.48706,5.1e-4 v -6.73085 h -2.14974 v 5.2803 h -1.81177 c -0.38806,0 -0.70224,-0.10304 -0.9431,-0.30954 -0.24107,-0.20651 -0.36173,-0.54456 -0.36173,-1.0139 v -3.95686 z m 8.58501,0 v 6.73034 h 2.14973 v -2.27635 h 2.28565 c 1.01359,0 1.75367,-0.1989 2.22002,-0.59635 0.46615,-0.40043 0.69918,-0.94142 0.69918,-1.62367 0,-0.69144 -0.23614,-1.23605 -0.70848,-1.63349 -0.46935,-0.40045 -1.20612,-0.60048 -2.21072,-0.60048 z m 12.11347,0 c -1.2924,0 -2.26729,0.28283 -2.92437,0.84904 -0.65389,0.56341 -0.98082,1.40228 -0.98082,2.51613 0,1.11405 0.32725,1.95437 0.98133,2.52077 0.65708,0.56321 1.63166,0.8444 2.92386,0.8444 h 3.04632 v -1.40767 h -2.77399 c -0.70402,0 -1.20599,-0.11756 -1.50637,-0.35243 -0.29742,-0.23467 -0.45714,-0.55394 -0.47904,-0.95757 h 4.7594 v -1.37976 h -4.7594 c 0.0533,-0.41302 0.22836,-0.72263 0.52555,-0.92914 0.30038,-0.20651 0.7872,-0.31006 1.45986,-0.31006 h 2.77399 v -1.39371 z m 3.9889,0 v 6.73034 h 2.14974 v -2.3859 h 1.94458 l 1.60818,2.3859 h 2.23759 l -1.85261,-2.54558 c 0.35351,-0.10635 0.64506,-0.26854 0.87334,-0.48783 0.45058,-0.4287 0.67541,-0.98908 0.67541,-1.68052 0,-0.68215 -0.22786,-0.94051 -0.68472,-1.36891 -0.45386,-0.43199 -1.15153,-0.6475 -2.09341,-0.6475 z m 15.92358,0 c -1.2922,0 -2.26677,0.28283 -2.92386,0.84904 -0.65408,0.56341 -0.98081,1.40228 -0.98081,2.51613 v 3.36517 h 2.14974 v -2.71767 h 4.80177 v -1.37976 h -4.7594 c 0.0531,-0.41302 0.22817,-0.72263 0.52555,-0.92914 0.30039,-0.20651 0.78668,-0.31006 1.45934,-0.31006 h 2.77451 v -1.39371 z m 12.37599,0 v 6.73034 h 2.14974 v -5.2803 h 1.81177 v 5.2803 h 2.14974 v -5.2803 h 0.44545 c 0.52267,0 0.89712,0.097 1.12241,0.29094 0.22529,0.19093 0.33797,0.51164 0.33797,0.96221 v 4.02715 h 2.14457 v -3.9424 c 0,-0.97624 -0.25669,-1.68529 -0.76998,-2.12648 -0.51329,-0.44119 -1.33616,-0.66146 -2.46858,-0.66146 z m 10.79572,0 v 6.73034 h 2.14974 v -6.73034 z m 6.97012,0 c -1.26424,0 -2.21723,0.28283 -2.85874,0.84904 -0.64131,0.56641 -0.9617,1.40528 -0.9617,2.51613 0,1.11405 0.32039,1.95437 0.9617,2.52077 0.64151,0.56321 1.5945,0.8444 2.85874,0.8444 h 3.1259 v -1.42214 h -2.59105 c -0.78551,0 -1.35035,-0.1517 -1.69447,-0.45527 -0.34412,-0.30358 -0.51573,-0.79932 -0.51573,-1.48776 0,-0.68824 0.17472,-1.18419 0.52503,-1.48777 0.35051,-0.30357 0.91733,-0.45527 1.69964,-0.45527 h 2.57658 v -1.42213 z m 12.91652,0 v 6.73034 h 2.14922 v -5.2803 h 1.8123 v 5.2803 h 2.14922 v -5.2803 h 0.44597 c 0.52247,0 0.8966,0.097 1.12189,0.29094 0.22549,0.19093 0.33797,0.51164 0.33797,0.96221 v 4.02715 h 2.14508 v -3.9424 c 0,-0.97624 -0.25669,-1.68529 -0.76998,-2.12648 -0.51307,-0.44119 -1.33576,-0.66146 -2.46858,-0.66146 z m -5.14594,0.0997 c -0.66347,0 -1.25623,0.0671 -1.7787,0.20154 -0.51947,0.13162 -0.96086,0.33509 -1.32395,0.6103 -0.36289,0.27242 -0.64313,0.62156 -0.84026,1.04697 -0.1939,0.42241 -0.29094,0.92437 -0.29094,1.50636 0,0.58219 0.097,1.08613 0.29094,1.51154 0.19713,0.42241 0.47737,0.77155 0.84026,1.04696 0.36309,0.27223 0.80448,0.47569 1.32395,0.6103 0.52247,0.13143 1.11523,0.19689 1.7787,0.19689 0.66347,0 1.25477,-0.0655 1.77405,-0.19689 0.52247,-0.13461 0.96551,-0.33807 1.3286,-0.6103 0.36609,-0.27541 0.64582,-0.62455 0.83975,-1.04696 0.19402,-0.42548 0.29139,-0.92926 0.29145,-1.51102 v -5.2e-4 c -6e-5,-0.58195 -0.0974,-1.08409 -0.29145,-1.50636 -0.19393,-0.42561 -0.47366,-0.77475 -0.83975,-1.04697 -0.36309,-0.27521 -0.80613,-0.47868 -1.3286,-0.6103 -0.51947,-0.13442 -1.11077,-0.20154 -1.77405,-0.20154 z m -67.78863,1.29398 h 1.90531 c 0.69164,0 1.03767,0.2817 1.03767,0.84491 0,0.55703 -0.34603,0.83561 -1.03767,0.83561 h -1.90531 z m 16.10238,0 h 2.18695 c 0.69174,0 1.03766,0.0111 1.03766,0.62735 0,0.62883 -0.34592,0.94362 -1.03766,0.94362 h -2.18695 z m 51.68625,0.12816 c 1.38927,0 2.08411,0.64765 2.08411,1.94303 0,1.29559 -0.69484,1.94355 -2.08411,1.94355 -1.38946,0 -2.08411,-0.64796 -2.08411,-1.94355 0,-1.29538 0.69465,-1.94303 2.08411,-1.94303 z m -31.23427,2.43448 h 2.40761 v 1.39423 h -2.40761 c -0.57899,0 -0.86868,-0.23304 -0.86868,-0.69919 0,-0.46334 0.28969,-0.69504 0.86868,-0.69504 z m -40.24302,4.79919 a 0.83643387,0.83643387 0 0 0 -0.83406,0.83302 0.83673345,0.83673345 0 0 0 0.83406,0.83406 0.83673345,0.83673345 0 0 0 0.83406,-0.83406 0.83643387,0.83643387 0 0 0 -0.83406,-0.83302 z m 18.12654,0.0103 v 1.04748 l 5.78208,0.62994 v -1.04748 z m 18.52704,0.0357 -0.8413,5.2e-4 v 2.0376 c 0,0.94608 -1.05503,1.45521 -1.64641,1.45521 h -3.27577 v 1.12758 h 3.52899 c 0.92181,0 2.23449,-0.77317 2.23449,-2.33009 z m -5.76089,0.0238 v 1.23352 h 3.54449 v -1.23352 z m -6.37119,0.007 v 1.22629 h 4.80643 v 2.16576 h -4.80643 v 1.19786 h 5.78776 v -4.58991 z m -28.13627,0.0181 v 1.88257 c 0,0.81576 -0.52665,1.54306 -1.57819,1.54306 h -0.31988 v 1.14619 h 0.46147 c 1.39395,0 2.30735,-0.9025 2.30735,-2.46962 v -2.1022 z m 1.61128,0 v 2.1022 c 0,1.56712 0.91287,2.46962 2.30683,2.46962 h 0.46147 v -1.14619 h -0.31987 c -1.05153,0 -1.5782,-0.7273 -1.5782,-1.54306 v -1.88257 z m -13.15941,0.0274 v 1.14153 l 3.9331,0.01 v 0.41031 c 0,1.25315 -1.31624,1.84175 -2.40192,1.84175 h -1.56115 v 1.14102 h 1.72134 c 0.7157,0 1.51563,-0.34466 2.11719,-0.91416 l 0.61494,0.91364 h 1.46141 l -1.43867,-1.75287 c 0.19393,-0.37009 0.29613,-0.78159 0.29766,-1.19941 v -1.59111 z m 21.79867,0 v 1.14153 l 4.71393,0.01 v 0.71055 c 0,1.25345 -0.97569,1.54151 -2.06138,1.54151 h -2.28203 v 1.14102 h 2.36368 c 1.37029,0 2.79053,-0.8441 2.79053,-2.53525 v -2.00918 z m -6.63577,0.25787 a 0.4493735,0.4493735 0 0 1 0.45217,0.45268 c 0,0.25255 -0.19962,0.4532 -0.45217,0.4532 -0.25224,0 -0.4532,-0.20065 -0.4532,-0.4532 0,-0.25224 0.20096,-0.45217 0.4532,-0.45217 z m 12.72222,0.78341 v 0.96893 h 4.07262 v 0.2589 c 0,0.17795 -0.12693,0.38499 -0.42891,0.38499 h -1.63143 v 0.45217 c 0,0.20522 -0.13584,0.40049 -0.3824,0.40049 h -1.35083 v 1.03767 h 1.21027 5.1e-4 c 0.861,0 1.12913,-0.55865 1.12913,-1.02061 h 1.07539 c 0.46854,0 1.10381,-0.51351 1.10381,-1.13275 v -1.34979 z m 5.40432,0.36845 v 1.04697 l 5.78208,0.62993 v -1.04748 z m -27.88512,0.32195 v 1.01079 h 4.17391 v -1.01079 z m 10.72958,0 v 1.01079 h 4.17339 v -1.01079 z m 17.15554,1.15703 v 1.04697 l 5.78208,0.63045 v -1.04748 z" /><g
         transform="matrix(0.29958233,0,0,0.29958233,228.62209,219.3341)"
         id="g6"><path
           d="m -95.376,-277.815 a 14.822,14.838 0 0 0 -5.832,1.192 14.822,14.838 0 0 0 -9.002,13.709 14.662,13.55 0 0 1 10.177,3.892 14.662,13.55 0 0 1 4.347,10.552 l 0.337,0.332 a 14.822,14.838 0 0 0 13.685,-9.233 14.822,14.838 0 0 0 -3.328,-16.182 14.822,14.838 0 0 0 -10.384,-4.262 z"
           fill="#ec1d23"
           id="path4"
           style="fill:#e06c75;fill-opacity:1" /><path
           d="m -124.909,-292.556 a 14.822,14.838 0 0 0 -5.832,1.191 14.822,14.838 0 0 0 -9.002,13.709 14.662,13.55 0 0 1 10.177,3.892 14.662,13.55 0 0 1 4.347,10.553 l 0.337,0.331 a 14.822,14.838 0 0 0 13.685,-9.233 14.822,14.838 0 0 0 -3.328,-16.182 14.822,14.838 0 0 0 -10.384,-4.261 z"
           fill="#43b9e9"
           id="path5"
           style="fill:#61afef;fill-opacity:1" /><ellipse
           cx="-143.677"
           cy="-258.64401"
           fill="#7bc049"
           rx="16.959999"
           ry="8.5190001"
           id="ellipse5"
           style="fill:#98c379;fill-opacity:1" /><ellipse
           cx="-114.149"
           cy="-243.795"
           fill="#eee816"
           rx="16.959999"
           ry="8.5190001"
           id="ellipse6"
           style="fill:#e5c07b;fill-opacity:1" /></g></g></g></svg>
